<svg width="34" height="34" viewBox="0 0 34 34" fill="none" xmlns="http://www.w3.org/2000/svg">
<path d="M17.5527 12.3962C17.7097 13.0264 17.9714 13.6126 18.319 14.136C18.4718 14.3621 18.6393 14.5777 18.8193 14.7808C18.9491 14.9169 19.081 15.0509 19.2192 15.1807C19.4223 15.3649 19.6421 15.5324 19.8682 15.681C20.3916 16.0328 20.9757 16.2903 21.6017 16.4431C21.6017 16.4431 21.6017 16.4473 21.6059 16.4473C22.0288 16.552 22.4748 16.6085 22.927 16.6085H34C33.9916 16.1228 33.9602 15.6496 33.91 15.1765H23.8628L23.934 15.1325H23.8837L32.5596 10.1184C32.0634 8.99619 31.4479 7.93892 30.734 6.9654L22.0351 11.9921L22.077 11.9105H22.0728C22.0728 11.9105 22.0456 11.9293 22.0288 11.9335L27.0304 3.2702C26.0527 2.55 24.9954 1.93658 23.8775 1.44249L18.8507 10.1456V10.0597H18.8424C18.8424 10.0597 18.8256 10.0911 18.8193 10.1037V0.0900231C18.3504 0.0397768 17.873 0.00837438 17.3915 0V11.073C17.3915 11.5273 17.4459 11.9691 17.5527 12.392V12.3962ZM21.6017 17.5548H21.5975C20.9716 17.7076 20.3895 17.9693 19.864 18.3169C19.6379 18.4697 19.4181 18.6372 19.215 18.8214C19.0789 18.9512 18.945 19.0831 18.8193 19.2213C18.6351 19.4244 18.4718 19.6358 18.319 19.8619C17.9714 20.3853 17.7097 20.9757 17.5569 21.6059H17.5527C17.448 22.0288 17.3915 22.4748 17.3915 22.9291V34C17.873 33.9916 18.3504 33.9602 18.8193 33.91V23.8523L18.8696 23.934V23.89L23.8754 32.5533C24.9934 32.0613 26.0506 31.4458 27.0283 30.7277L22.0016 22.0246L22.0874 22.0707C22.0874 22.0707 22.0707 22.0435 22.0644 22.0267L30.7277 27.0304C31.4437 26.0569 32.0571 24.9996 32.5533 23.8775L23.844 18.8466L23.7937 18.8193H33.9079C33.9581 18.3462 33.9895 17.873 33.9979 17.3873H22.9249C22.4664 17.3873 22.0246 17.4418 21.5996 17.5506L21.6017 17.5548ZM15.6831 19.864C15.5303 19.6379 15.3586 19.4181 15.1786 19.215C15.053 19.0789 14.9252 18.9491 14.7871 18.8235C14.584 18.6435 14.3642 18.4718 14.1381 18.319C13.6147 17.9714 13.0305 17.7076 12.4025 17.5569C11.9754 17.448 11.5336 17.3936 11.0772 17.3936H0C0.00837438 17.8793 0.0397768 18.3525 0.0900231 18.8256H10.1456L10.0639 18.8759H10.1142L1.44249 23.8858C1.93867 25.0038 2.55419 26.0611 3.2681 27.0346L11.9775 22.0079L11.9314 22.0937C11.9314 22.0937 11.9586 22.0749 11.9712 22.0707L6.96958 30.734C7.9431 31.45 9.00037 32.0634 10.1225 32.5575L15.1514 23.8502V23.9487C15.1514 23.9487 15.1702 23.9131 15.1786 23.8984V33.9163C15.6517 33.9665 16.1291 33.9937 16.6106 34.0021V22.9312C16.6106 22.4727 16.5562 22.0267 16.4473 21.6017C16.2945 20.9716 16.0328 20.3895 15.6852 19.864H15.6831ZM15.1786 10.1435L15.1325 10.066V10.1204L10.1225 1.44459C9.00037 1.93658 7.9431 2.55209 6.96958 3.2681L11.9963 11.9712L11.9147 11.9272L11.9377 11.9712L3.2702 6.96749C2.55419 7.94102 1.94076 8.99828 1.44458 10.1163L10.1539 15.1514H10.1581L10.1707 15.1597H10.1581L10.0597 15.1555C10.0744 15.1639 10.0869 15.1702 10.1037 15.1786H0.0900231C0.0397768 15.6517 0.00837438 16.1249 0 16.6106H11.073C11.5273 16.6106 11.9733 16.5562 12.3941 16.4473H12.3983C13.0284 16.2945 13.6105 16.0328 14.1339 15.6852C14.36 15.5366 14.5756 15.3691 14.7787 15.1849C14.9148 15.0592 15.0488 14.9273 15.1786 14.7892C15.3586 14.5861 15.5303 14.3704 15.6831 14.1443C16.0307 13.6209 16.2924 13.0368 16.4452 12.4067C16.5541 11.9754 16.6085 11.5336 16.6085 11.0772V0.00419128C16.127 0.0125657 15.6496 0.0397768 15.1765 0.0900231V10.1477L15.1786 10.1435Z" fill="#879E71"/>
</svg>
